<svg id="Layer_1" data-name="Layer 1" xmlns="http://www.w3.org/2000/svg" viewBox="0 0 991.63 334.87"><defs><style>.cls-1,.cls-3{fill:#fff;}.cls-2{fill:#fafdff;}.cls-3{font-size:45.48px;font-family:Poppins-Regular, Poppins;}</style></defs><title>logo</title><g id="white_logo" data-name="white logo"><path class="cls-1" d="M651.13,963v-23.4h29.43V963h19.28V987.4H680.56V1026q0,4.3,2.07,6.2c1.37,1.26,3.67,1.89,6.88,1.89H700v25H685q-16,0-25-7.83t-9-25.56V987.4" transform="translate(-504.18 -796.31)"/><path class="cls-1" d="M758.7,966.49a33.25,33.25,0,0,1,17.21-4.56v31.15h-8.09q-11,0-16.52,4.73t-5.51,16.61V1059H716.36V963h29.43v16A38.73,38.73,0,0,1,758.7,966.49Z" transform="translate(-504.18 -796.31)"/><path class="cls-1" d="M804.74,970.46q-8.84,0-14.72-4.72V1059h29.43V965.58A22.4,22.4,0,0,1,804.74,970.46Z" transform="translate(-504.18 -796.31)"/><path class="cls-1" d="M793.17,958.87a13.46,13.46,0,0,1-4.48-10.29,13.66,13.66,0,0,1,4.48-10.44A16.28,16.28,0,0,1,804.71,934a16.05,16.05,0,0,1,11.38,4.16,13.66,13.66,0,0,1,4.48,10.44,13.46,13.46,0,0,1-4.48,10.29A16,16,0,0,1,804.71,963,16.24,16.24,0,0,1,793.17,958.87Z" transform="translate(-504.18 -796.31)"/><path class="cls-1" d="M841.05,984.82a42.41,42.41,0,0,1,17-17.21,51,51,0,0,1,25-6q18.06,0,30.2,9.47t15.92,26.68H897.93q-4-11-15.32-11A15.46,15.46,0,0,0,869.7,993q-4.82,6.28-4.82,18t4.82,18a15.44,15.44,0,0,0,12.91,6.29q11.35,0,15.32-11h31.32q-3.78,16.88-16,26.51t-30.12,9.63a50.94,50.94,0,0,1-25-6,42.41,42.41,0,0,1-17-17.21q-6.12-11.19-6.11-26.16T841.05,984.82Z" transform="translate(-504.18 -796.31)"/><path class="cls-1" d="M1003.6,1059l-29.26-40.28V1059H944.91V931.64h29.43V1002L1003.43,963h36.31l-39.93,48.19,40.28,47.85Z" transform="translate(-504.18 -796.31)"/><path class="cls-1" d="M1149.37,963l-60.23,141.64h-31.67l22-48.87L1040.43,963h32.87l22.2,60.07,22-60.07Z" transform="translate(-504.18 -796.31)"/><path class="cls-1" d="M1238.69,945.75A54,54,0,0,1,1260.81,967q7.83,13.68,7.83,31.58,0,17.73-7.83,31.49a53.75,53.75,0,0,1-22.2,21.34q-14.37,7.57-33.3,7.58H1160V938.18h45.27Q1224.41,938.18,1238.69,945.75Zm-9.29,78.65q9.3-9.12,9.29-25.81t-9.29-26q-9.3-9.3-26-9.29h-13.94v70.22h13.94Q1220.11,1033.53,1229.4,1024.4Z" transform="translate(-504.18 -796.31)"/><path class="cls-1" d="M1303.49,1054.35a44.14,44.14,0,0,1-17.73-17.21q-6.45-11.19-6.45-26.16,0-14.81,6.54-26.08a44.44,44.44,0,0,1,17.9-17.29,56.81,56.81,0,0,1,50.94,0,44.44,44.44,0,0,1,17.9,17.29q6.54,11.28,6.54,26.08t-6.63,26.07a44.76,44.76,0,0,1-18.07,17.3,54,54,0,0,1-25.55,6A53,53,0,0,1,1303.49,1054.35Zm39.76-25.64q5.93-6.21,5.93-17.73t-5.76-17.73a19.57,19.57,0,0,0-28.49-.08q-5.67,6.11-5.68,17.81,0,11.53,5.6,17.73a18.1,18.1,0,0,0,14,6.19A19.17,19.17,0,0,0,1343.25,1028.71Z" transform="translate(-504.18 -796.31)"/><path class="cls-1" d="M1448.32,1034v25h-15q-16,0-24.95-7.83t-9-25.56V987.4h-11.71V963h11.71v-23.4h29.43V963h19.27V987.4h-19.27V1026q0,4.3,2.06,6.2c1.38,1.26,3.67,1.89,6.89,1.89Z" transform="translate(-504.18 -796.31)"/><path class="cls-1" d="M1465.78,1055.81a14.77,14.77,0,0,1-4.9-11.27,15.24,15.24,0,0,1,4.9-11.53q4.9-4.65,12.65-4.65a17.41,17.41,0,0,1,12.48,4.65,15.25,15.25,0,0,1,4.91,11.53,14.78,14.78,0,0,1-4.91,11.27,17.61,17.61,0,0,1-12.48,4.56Q1470.69,1060.37,1465.78,1055.81Z" transform="translate(-504.18 -796.31)"/><path class="cls-2" d="M540,818.6c27.49-23.38,68.63-28.89,101.44-14.07,32.89,14.55,57.5,48,58,84.46-.3,12,1.63,24.38,8,34.75,1.48,3,4.4,5.48,4.84,8.87-1.86,6.52-5.39,12.42-7.87,18.71-15.41-14.28-23.91-35.16-24-56.07.14-21.21-7.66-43-23.64-57.34-14.72-13.21-34.06-22.51-54.16-22a77.76,77.76,0,0,0-61.3,29.06c-15.19,18-20.92,43.12-16,66,3.86,19.51,16.34,36.63,32.3,48.17,23.08,16.27,54.9,18,80,5.43.06,7,0,13.91.12,20.88-22.37,8.53-48,9.56-70.45.61A104.35,104.35,0,0,1,521.69,951c-14.24-20.07-19.59-45.75-16.78-70C507.64,856.54,521.37,834.31,540,818.6Z" transform="translate(-504.18 -796.31)"/><path class="cls-2" d="M590.44,836.08a59.1,59.1,0,1,1-27.2,103c-20.45-16.82-26.64-48-14.53-71.45A59,59,0,0,1,590.44,836.08Z" transform="translate(-504.18 -796.31)"/></g><text class="cls-3" transform="translate(611.58 308.86)">TECHNOLOGIES</text></svg>